# xmcd
#
# Track frame offsets:
#	9003
#	19494
#	34140
#	51678
#	70357
#	98535
#	116909
#	132226
#	152956
#	172614
#	193043
#	204628
#	237866
#	258413
#	279578
#
# Disc length: 3973 seconds
#
# Revision: 0
# Processed by: cddbd v1.5.1PL0 Copyright (c) Steve Scherf et al.
# Submitted via: dBpowerAMP V4.0
#
DISCID=df0f0d0f
DTITLE=Troo.L.S. and Orgi-E - Forklædt Som Voksen
DYEAR=2005
DGENRE=
TTITLE0=F.I.P. - Stereo
TTITLE1=Sim Sima
TTITLE2=Go' Morgen Danmark
TTITLE3=Forklædt Som Voksen
TTITLE4=F.I.P.C. (Tabu Rec'z)
TTITLE5=Inden Det For Sent
TTITLE6=Dollar Dan$en
TTITLE7=Standby feat. F.I.P.
TTITLE8=Jeg Tør Ikk' Tro
TTITLE9=Rolig - Rolig feat. Tue Track and Jooks
TTITLE10=Vedhvadjegmener?
TTITLE11=Ulven Kommer feat. Alex
TTITLE12=Repeat
TTITLE13=Jo Mer...
TTITLE14=[hemmeligt nummer]
EXTD=
EXTT0=
EXTT1=
EXTT2=
EXTT3=
EXTT4=
EXTT5=
EXTT6=
EXTT7=
EXTT8=
EXTT9=
EXTT10=
EXTT11=
EXTT12=
EXTT13=
EXTT14=
PLAYORDER=
